<svg width="38" height="38" viewBox="0 0 38 38" fill="none" xmlns="http://www.w3.org/2000/svg">
<path d="M37.74 18.87C37.74 29.2916 29.2916 37.74 18.87 37.74C8.44839 37.74 0 29.2916 0 18.87C0 8.44839 8.44839 0 18.87 0C29.2916 0 37.74 8.44839 37.74 18.87Z" fill="white"/>
<path d="M18.87 0C8.45376 0 0 8.45376 0 18.87C0 29.2862 8.45376 37.74 18.87 37.74C29.2862 37.74 37.74 29.2862 37.74 18.87C37.74 8.45376 29.2862 0 18.87 0ZM18.87 36.3436C9.2463 36.3436 1.39638 28.4937 1.39638 18.87C1.39638 9.2463 9.2463 1.39638 18.87 1.39638C28.4937 1.39638 36.3436 9.2463 36.3436 18.87C36.3436 28.4937 28.4937 36.3436 18.87 36.3436Z" fill="white"/>
<path d="M9.34902 12.0974L18.5038 10.4773L28.7029 11.7467L28.905 26.1499L9.55117 26.5007L9.34902 12.0974Z" fill="#5C0808"/>
<path d="M16.417 23.4742L23.6253 18.8699L16.417 14.2656V23.4742ZM17.8134 16.8319L21.0213 18.8699L17.8134 20.9079V16.8319Z" fill="#5C0808"/>
<path d="M29.4373 12.681C29.2863 11.7375 28.4183 10.9072 27.4748 10.7562C25.8897 10.5298 23.1725 10.2656 19.172 10.2656C15.1716 10.2656 12.4543 10.5298 10.907 10.7562C9.96346 10.9072 9.0577 11.7375 8.869 12.6432C8.6803 13.6622 8.45386 15.5492 8.45386 18.7571C8.45386 22.0028 8.6803 23.9275 8.869 24.9842C9.01996 25.89 9.92572 26.7203 10.907 26.8335C12.5298 27.0222 15.7377 27.3618 19.0965 27.3618C22.4554 27.3618 25.7765 27.0222 27.3993 26.7957C28.3428 26.6825 29.2109 25.8522 29.3618 24.9087C29.5883 23.5501 29.8524 21.3612 29.8524 18.7194C29.9279 16.1908 29.6637 14.0396 29.4373 12.681ZM28.0787 24.7578C28.0409 25.0974 27.6635 25.4371 27.3239 25.4748C25.6633 25.7013 22.4554 26.0409 19.1343 26.0409C15.8509 26.0409 12.6807 25.7013 11.0957 25.5126C10.7183 25.4748 10.3031 25.0974 10.2654 24.7955C10.0767 23.8143 9.85024 21.965 9.85024 18.8326C9.85024 15.7379 10.0767 13.9264 10.2276 12.9452C10.3031 12.6432 10.7183 12.2281 11.0957 12.1904C12.3411 12.0017 15.0206 11.6997 19.1343 11.6997C23.2857 11.6997 26.003 12.0017 27.2484 12.1904C27.588 12.2281 27.3993 10.4166 27.4748 10.7562C27.7013 12.0394 28.4938 16.304 28.4938 18.7949C28.5315 21.3234 28.2674 23.4369 28.0787 24.7578Z" fill="#5C0808"/>
<path d="M17.3604 16.7256L21.1344 19.0843L17.3604 21.4431V16.7256Z" fill="#FCF8F8"/>
</svg>

