<svg width="79" height="79" viewBox="0 0 79 79" fill="none" xmlns="http://www.w3.org/2000/svg">
<path fill-rule="evenodd" clip-rule="evenodd" d="M3.86556 26.2L9.67238 28.12L16.9594 6.84C18.098 3.16 20.0336 1.4 22.1969 0.6C33.8105 -0.2 45.1965 -0.2 56.8101 0.6C58.9734 1.4 60.909 3.16 62.0476 6.84L69.3346 28.12L75.1414 26.2C76.8493 25.72 78.5572 27.16 78.8988 29.56C79.3542 31.8 78.2156 34.2 76.6216 34.84L72.4088 36.12L73.3197 38.52C73.4336 50.52 73.5474 62.36 73.5474 74.36C73.5474 76.92 72.0672 79 70.2455 79H58.9734C57.1517 79 55.6715 76.92 55.6715 74.36V67.96H23.3355V74.36C23.3355 76.92 21.8553 79 20.0336 79H8.7615C6.93975 79 5.45958 76.92 5.45958 74.36C5.45958 62.36 5.57344 50.52 5.6873 38.52L6.59818 36.12L2.38538 34.84C0.677496 34.2 -0.347237 31.8 0.1082 29.56C0.449778 27.16 2.15767 25.72 3.86556 26.2ZM23.3355 6.52C20.1474 6.84 15.5931 25.24 14.1129 29.56C31.0779 27.32 47.9291 27.32 64.8941 29.56C63.4139 25.24 58.8596 6.84 55.6715 6.52C44.8549 4.92 34.1521 4.92 23.3355 6.52ZM66.7159 41.72C61.4783 42.52 54.9884 44.28 52.4835 47.32V49.24C52.4835 51 53.5082 52.44 54.7606 52.44H66.602C67.9683 52.44 69.1069 50.84 69.1069 48.76V45.24C69.1069 43.32 68.0822 41.56 66.7159 41.72ZM12.2911 41.72C17.5287 42.52 24.0186 44.28 26.5235 47.32V49.24C26.5235 51 25.4988 52.44 24.2464 52.44H12.405C11.0387 52.44 9.78624 50.84 9.78624 48.76V45.24C9.78624 43.32 10.9248 41.56 12.2911 41.72Z" fill="darkred"/>
</svg>
