<svg width="79" height="79" viewBox="0 0 79 79" fill="none" xmlns="http://www.w3.org/2000/svg">
<path d="M39.5 0C17.7274 0 0 17.7274 0 39.5C0 61.2724 17.7272 79 39.5 79C61.2728 79 79 61.2724 79 39.5C79 17.7274 61.2726 0 39.5 0ZM39.5 7.18181C57.3913 7.18181 71.8182 21.6088 71.8182 39.5C71.8182 57.391 57.3913 71.8182 39.5 71.8182C21.6087 71.8182 7.18182 57.391 7.18182 39.5C7.18182 21.6088 21.6087 7.18181 39.5 7.18181ZM39.5 13.1667C37.5169 13.1667 35.9091 14.7744 35.9091 16.7576V39.5C35.9091 40.4916 36.3066 41.3938 36.9564 42.0435L51.3575 56.4445C52.7598 57.8469 55.0422 57.8469 56.4446 56.4445C57.8469 55.0423 57.8469 52.7597 56.4446 51.3574L43.0909 38.0038V16.7576C43.0909 14.7744 41.4833 13.1667 39.5 13.1667Z" fill="darkblue"/>
</svg>
