<svg width="117" height="95" viewBox="0 0 117 95" fill="none" xmlns="http://www.w3.org/2000/svg">
<path d="M111.077 46.1709C111.077 69.5508 87.5766 88.7573 58.2403 88.7573C28.9041 88.7573 5.40394 69.5508 5.40394 46.1709C5.40394 22.7911 28.9041 3.58461 58.2403 3.58461C87.5766 3.58461 111.077 22.7911 111.077 46.1709Z" stroke="#6B2929" stroke-width="1.48952"/>
<path d="M115.671 47.1879C115.671 72.6008 90.1276 93.4774 58.2404 93.4774C26.3532 93.4774 0.809524 72.6008 0.809524 47.1879C0.809524 21.775 26.3532 0.898391 58.2404 0.898391C90.1276 0.898391 115.671 21.775 115.671 47.1879Z" stroke="#6B2929" stroke-width="1.61905"/>
<path d="M58.3893 13.0176C48.2594 13.0176 40.0108 20.4027 40.0108 29.5022C40.0108 38.6017 48.2594 45.9868 58.3893 45.9868C68.5193 45.9868 76.7407 38.6017 76.7407 29.5022C76.7407 20.4027 68.5193 13.0176 58.3893 13.0176ZM58.3893 14.5782C67.5803 14.5782 75.0033 21.2461 75.0033 29.5022C75.0033 37.7582 67.5803 44.4261 58.3893 44.4261C49.1983 44.4261 41.7482 37.7582 41.7482 29.5022C41.7482 21.2461 49.1983 14.5782 58.3893 14.5782ZM58.5794 19.5285C58.3635 19.5528 58.1657 19.649 58.0249 19.798C57.8842 19.947 57.8108 20.138 57.8192 20.3332V21.9183C55.3537 22.3197 53.4214 23.9201 53.4214 26.015C53.4214 27.3289 54.1292 28.362 55.1045 28.9901C56.0799 29.6181 57.2561 29.9388 58.4436 30.2337C59.5844 30.5171 60.5964 30.8436 61.2398 31.2579C61.8832 31.6722 62.2171 32.0703 62.2171 32.9405C62.2171 34.3162 60.5798 35.5985 58.335 35.5985C57.1117 35.5985 55.3252 35.2406 54.8331 34.867C54.7469 34.7939 54.6451 34.7374 54.5337 34.701C54.4224 34.6646 54.3039 34.649 54.1856 34.6552C54.0673 34.6615 53.9517 34.6894 53.8459 34.7372C53.74 34.7851 53.6462 34.8519 53.5702 34.9335C53.4941 35.0151 53.4375 35.1099 53.4037 35.2119C53.37 35.3139 53.3598 35.4211 53.3738 35.5268C53.3878 35.6324 53.4258 35.7344 53.4853 35.8265C53.5449 35.9185 53.6248 35.9986 53.72 36.0619C54.8213 36.898 56.4315 37.1215 57.8192 37.1592V38.6711C57.8176 38.7745 57.8389 38.8772 57.8818 38.9731C57.9247 39.0691 57.9885 39.1564 58.0693 39.2301C58.1501 39.3037 58.2464 39.3622 58.3526 39.4021C58.4588 39.442 58.5728 39.4626 58.6879 39.4626C58.8031 39.4626 58.917 39.442 59.0233 39.4021C59.1295 39.3622 59.2258 39.3037 59.3066 39.2301C59.3874 39.1564 59.4512 39.0691 59.4941 38.9731C59.537 38.8772 59.5583 38.7745 59.5566 38.6711V37.0617C62.015 36.6529 63.9545 35.0279 63.9545 32.9405C63.9545 31.6267 63.2467 30.6179 62.2714 29.9899C61.296 29.3618 60.0926 29.0412 58.9051 28.7462C57.7643 28.4629 56.7524 28.1363 56.109 27.722C55.4656 27.3077 55.1588 26.8852 55.1588 26.015C55.1588 24.6394 56.769 23.357 59.0137 23.357C60.237 23.357 62.0235 23.7393 62.5157 24.113C62.6018 24.1861 62.7037 24.2426 62.815 24.279C62.9264 24.3154 63.0448 24.331 63.1631 24.3247C63.2814 24.3185 63.397 24.2906 63.5029 24.2427C63.6087 24.1949 63.7025 24.1281 63.7786 24.0465C63.8546 23.9648 63.9113 23.8701 63.945 23.7681C63.9788 23.666 63.989 23.5589 63.9749 23.4532C63.9609 23.3475 63.9229 23.2455 63.8634 23.1535C63.8039 23.0615 63.724 22.9814 63.6287 22.9181C62.5347 22.0875 60.9383 21.865 59.5566 21.8207V20.3332C59.5616 20.22 59.539 20.1071 59.4905 20.0025C59.4419 19.8979 59.3686 19.804 59.2756 19.7274C59.1826 19.6509 59.0721 19.5934 58.9519 19.559C58.8316 19.5247 58.7045 19.5143 58.5794 19.5285ZM26.6545 29.0388C26.2169 29.0484 25.7802 29.1375 25.3786 29.3071C24.5753 29.6462 23.9748 30.4233 23.8855 31.3555L21.958 51.3516C21.7265 53.7694 22.0324 57.0028 24.8085 59.4963L36.9432 70.3966C38.0853 71.4226 38.7203 72.2596 38.7349 73.4692L38.7892 78.6145C38.7909 78.7171 38.815 78.8183 38.8603 78.9125C38.9055 79.0066 38.971 79.0918 39.0529 79.1632C39.1349 79.2346 39.2317 79.2908 39.3378 79.3286C39.4439 79.3664 39.5573 79.385 39.6715 79.3834C39.7856 79.3818 39.8983 79.36 40.0031 79.3193C40.1078 79.2785 40.2026 79.2197 40.2821 79.146C40.3615 79.0723 40.4239 78.9853 40.4659 78.8899C40.5079 78.7946 40.5285 78.6927 40.5266 78.5902L40.4723 73.4448C40.4515 71.7219 39.4575 70.436 38.192 69.2993L26.0301 58.399C23.7409 56.3428 23.4857 53.6638 23.6955 51.4735L25.6229 31.4774C25.6702 30.9833 25.8225 30.8434 26.1115 30.7214C26.4005 30.5995 26.9169 30.5746 27.496 30.7214C28.6543 31.0152 29.9281 31.9713 30.2379 33.2575L32.2196 41.4267C32.2324 41.5363 32.2708 41.6423 32.3325 41.7376C32.3941 41.8329 32.4775 41.9155 32.5773 41.9797C32.677 42.044 32.7907 42.0885 32.911 42.1105C33.0313 42.1324 33.1554 42.1312 33.2751 42.1069C33.3948 42.0826 33.5074 42.0358 33.6055 41.9696C33.7037 41.9034 33.785 41.8192 33.8443 41.7227C33.9036 41.6262 33.9395 41.5195 33.9496 41.4096C33.9596 41.2997 33.9437 41.1892 33.9027 41.0853L31.9481 32.9161C31.477 30.9601 29.7056 29.6529 27.9575 29.2095C27.5205 29.0987 27.092 29.0292 26.6545 29.0388ZM90.1242 29.0388C89.6866 29.0292 89.2581 29.0987 88.8211 29.2095C87.0731 29.6529 85.3017 30.9601 84.8305 32.9161L82.8759 41.0853C82.835 41.1892 82.819 41.2997 82.8291 41.4096C82.8392 41.5195 82.875 41.6262 82.9343 41.7227C82.9936 41.8192 83.075 41.9034 83.1731 41.9696C83.2713 42.0358 83.3839 42.0826 83.5036 42.1069C83.6233 42.1312 83.7474 42.1324 83.8677 42.1105C83.9879 42.0885 84.1017 42.044 84.2014 41.9797C84.3011 41.9155 84.3846 41.8329 84.4462 41.7376C84.5078 41.6423 84.5463 41.5363 84.559 41.4267L86.5408 33.2575C86.8506 31.9713 88.1244 31.0152 89.2826 30.7214C89.8617 30.5746 90.3781 30.5995 90.6671 30.7214C90.9561 30.8434 91.1084 30.9833 91.1558 31.4774L93.0832 51.4735C93.293 53.6638 93.0378 56.3428 90.7486 58.399L78.5867 69.2993C77.3212 70.436 76.3271 71.7219 76.3064 73.4448L76.2521 78.5902C76.2502 78.6927 76.2708 78.7946 76.3128 78.8899C76.3547 78.9853 76.4172 79.0723 76.4966 79.146C76.576 79.2197 76.6708 79.2785 76.7756 79.3193C76.8804 79.36 76.993 79.3818 77.1072 79.3834C77.2213 79.385 77.3347 79.3664 77.4408 79.3286C77.547 79.2908 77.6438 79.2346 77.7257 79.1632C77.8077 79.0918 77.8731 79.0066 77.9184 78.9125C77.9636 78.8183 77.9878 78.7171 77.9895 78.6145L78.0438 73.4692C78.0584 72.2596 78.6933 71.4226 79.8355 70.3966L91.9702 59.4963C94.7463 57.0028 95.0522 53.7694 94.8206 51.3516L92.8932 31.3555C92.8039 30.4233 92.2034 29.6462 91.4001 29.3071C90.9985 29.1375 90.5618 29.0485 90.1242 29.0388ZM33.3869 45.8161C31.3099 46.0657 29.9606 47.6344 29.4235 49.2544C28.896 50.8453 29.056 52.6691 30.4279 53.7413L30.4822 53.7901C30.4879 53.7979 30.4766 53.8106 30.4822 53.8145L40.2008 62.5201C40.2773 62.6054 40.373 62.6753 40.4815 62.7252C40.59 62.7751 40.7091 62.8039 40.8308 62.8097C40.9526 62.8156 41.0743 62.7984 41.1882 62.7592C41.302 62.72 41.4054 62.6597 41.4916 62.5823C41.5779 62.5048 41.645 62.412 41.6886 62.3097C41.7322 62.2074 41.7514 62.098 41.7449 61.9887C41.7383 61.8793 41.7063 61.7724 41.6507 61.6749C41.5952 61.5774 41.5174 61.4915 41.4224 61.4228L31.6495 52.644C31.6322 52.627 31.6141 52.6108 31.5952 52.5952C30.954 52.1229 30.7086 50.8938 31.1066 49.6934C31.464 48.6153 32.2706 47.8008 33.3055 47.523L41.1238 54.5217C41.2731 54.6643 41.4766 54.7514 41.6939 54.7655C47.8684 55.0477 52.1107 58.1578 52.4441 62.3494L53.8015 79.3949C53.8102 79.4975 53.8413 79.5976 53.8931 79.6894C53.9449 79.7812 54.0164 79.8629 54.1034 79.9299C54.1904 79.9968 54.2912 80.0477 54.4002 80.0796C54.5091 80.1115 54.624 80.1238 54.7382 80.1158C54.8524 80.1078 54.9638 80.0796 55.0659 80.0329C55.1679 79.9862 55.2588 79.9218 55.3331 79.8436C55.4075 79.7653 55.464 79.6746 55.4993 79.5767C55.5346 79.4787 55.548 79.3755 55.5389 79.273L54.1815 62.2519C53.7858 57.2773 48.7709 53.7217 42.1826 53.278L34.1199 46.0355C34.0249 45.9506 33.9092 45.8867 33.7821 45.8486C33.6549 45.8105 33.5197 45.7994 33.3869 45.8161ZM83.1203 45.8161C82.945 45.845 82.7839 45.9216 82.6588 46.0355L74.5961 53.278C68.0078 53.7217 62.9928 57.2773 62.5971 62.2519L61.2398 79.273C61.2306 79.3755 61.2441 79.4787 61.2794 79.5767C61.3147 79.6746 61.3711 79.7653 61.4455 79.8436C61.5199 79.9218 61.6107 79.9862 61.7128 80.0329C61.8149 80.0796 61.9262 80.1078 62.0405 80.1158C62.1547 80.1238 62.2696 80.1115 62.3785 80.0796C62.4874 80.0477 62.5883 79.9968 62.6753 79.9299C62.7623 79.8629 62.8337 79.7812 62.8855 79.6894C62.9373 79.5976 62.9685 79.4975 62.9772 79.3949L64.3345 62.3494C64.668 58.1578 68.9102 55.0477 75.0847 54.7655C75.3021 54.7514 75.5056 54.6643 75.6548 54.5217L83.4732 47.523C84.5081 47.8008 85.3146 48.6153 85.6721 49.6934C86.0701 50.8938 85.8247 52.1229 85.1834 52.5952C85.1645 52.6108 85.1464 52.627 85.1291 52.644L75.3562 61.4228C75.2613 61.4915 75.1835 61.5774 75.128 61.6749C75.0724 61.7724 75.0403 61.8793 75.0338 61.9887C75.0273 62.098 75.0464 62.2074 75.0901 62.3097C75.1337 62.412 75.2008 62.5048 75.287 62.5823C75.3732 62.6597 75.4766 62.72 75.5905 62.7592C75.7043 62.7984 75.8261 62.8156 75.9478 62.8097C76.0696 62.8039 76.1886 62.7751 76.2972 62.7252C76.4057 62.6753 76.5013 62.6054 76.5778 62.5201L86.2965 53.8145V53.7901L86.3508 53.7413C87.7227 52.6691 87.8827 50.8453 87.3552 49.2544C86.818 47.6344 85.4687 46.0657 83.3917 45.8161C83.3018 45.8033 83.2102 45.8033 83.1203 45.8161Z" fill="#6B2929"/>
</svg>
