<?xml version="1.0" standalone="no"?>
<!DOCTYPE svg PUBLIC "-//W3C//DTD SVG 20010904//EN"
 "http://www.w3.org/TR/2001/REC-SVG-20010904/DTD/svg10.dtd">
<svg version="1.0" xmlns="http://www.w3.org/2000/svg"
 width="370.000000pt" height="150.000000pt" viewBox="0 0 440.000000 118.000000"
 preserveAspectRatio="xMidYMid meet">

<g transform="translate(0.000000,118.000000) scale(0.118000,-0.118000)"
fill="#fff" stroke="none">
<path d="M210 1011 c-100 -35 -160 -134 -146 -239 31 -228 379 -441 575 -352
48 22 61 21 36 -4 -15 -14 -13 -15 17 -10 18 3 39 7 46 10 6 2 12 -1 12 -5 0
-5 -6 -12 -12 -14 -7 -3 1 -6 17 -7 29 -1 29 -1 11 -15 -18 -14 -18 -15 -2
-15 26 0 9 -18 -27 -29 -29 -8 -30 -9 -7 -10 22 -1 23 -3 8 -12 -43 -25 -356
-28 -463 -4 -28 6 -25 1 35 -57 127 -124 238 -181 310 -159 99 29 316 224 419
375 49 71 52 78 30 73 -13 -3 -78 -15 -144 -27 -210 -35 -407 -45 -505 -23
-23 5 -23 6 -5 13 17 6 17 7 -8 14 -27 6 -38 26 -15 26 6 0 3 7 -8 15 -18 14
-18 14 4 15 15 0 21 4 16 12 -5 8 3 9 29 5 28 -4 35 -3 30 9 -6 17 -7 17 42
-1 140 -50 441 50 540 179 78 102 -37 194 -229 184 -84 -5 -156 -32 -201 -75
-20 -19 -20 -19 -67 32 -94 103 -218 139 -338 96z"/>
<path d="M1177 964 c-4 -4 -7 -142 -7 -306 l0 -298 40 0 40 0 0 115 c0 107 1
115 19 115 11 0 26 3 35 6 14 5 16 -9 16 -116 l0 -121 43 3 42 3 0 300 0 300
-40 0 -40 0 -5 -140 -5 -140 -32 -3 -32 -3 -3 143 -3 143 -30 3 c-17 2 -34 0
-38 -4z"/>
<path d="M1467 964 c-4 -4 -7 -142 -7 -306 l0 -299 93 3 92 3 0 40 0 40 -52 3
-53 3 0 99 0 99 48 3 47 3 0 40 0 40 -47 3 -48 3 0 69 0 69 53 3 52 3 0 40 0
40 -85 3 c-47 1 -89 0 -93 -4z"/>
<path d="M1755 958 c-7 -19 -75 -536 -75 -570 0 -26 3 -28 40 -28 35 0 40 3
40 23 0 35 12 45 61 52 l46 7 7 -41 c6 -40 7 -41 46 -41 50 0 50 -23 2 330
l-37 275 -63 3 c-44 2 -64 -1 -67 -10z m84 -273 c7 -55 14 -112 17 -127 5 -24
2 -27 -31 -34 -20 -3 -38 -4 -41 -2 -2 3 3 69 13 147 9 77 20 136 24 129 3 -7
12 -58 18 -113z"/>
<path d="M2008 964 c-5 -4 -8 -142 -8 -306 l0 -298 40 0 40 0 0 91 c0 115 13
114 53 -4 l29 -87 37 0 c21 0 40 2 43 5 3 3 -7 47 -23 97 -30 96 -35 128 -20
128 19 0 31 67 31 174 0 120 -8 146 -52 179 -27 20 -156 37 -170 21z m130
-202 l3 -112 -26 -10 c-15 -6 -28 -10 -31 -10 -2 0 -4 57 -4 126 l0 125 28 -3
27 -3 3 -113z"/>
<path d="M2247 964 c-4 -4 -7 -25 -7 -46 l0 -38 45 0 45 0 0 -260 0 -260 40 0
40 0 2 258 3 257 43 3 43 3 -3 42 -3 42 -121 3 c-66 1 -123 -1 -127 -4z"/>
<path d="M2537 964 c-4 -4 -7 -142 -7 -306 l0 -298 105 0 105 0 0 45 0 45 -65
0 -65 0 -2 258 -3 257 -30 3 c-17 2 -34 0 -38 -4z"/>
<path d="M2845 958 c-7 -19 -75 -536 -75 -570 0 -26 3 -28 40 -28 35 0 40 3
40 23 0 35 12 45 61 52 l46 7 7 -41 c6 -40 7 -41 46 -41 50 0 50 -23 2 330
l-37 275 -63 3 c-44 2 -64 -1 -67 -10z m84 -273 c7 -55 14 -112 17 -127 5 -24
2 -27 -31 -34 -20 -3 -38 -4 -41 -2 -2 3 3 69 13 147 9 77 20 136 24 129 3 -7
12 -58 18 -113z"/>
<path d="M3097 963 c-4 -3 -7 -141 -7 -305 l0 -298 40 0 40 0 0 147 c0 80 3
143 6 140 4 -3 21 -68 38 -144 l31 -138 43 -3 42 -3 -2 303 -3 303 -35 0 -35
0 -5 -145 c-3 -80 -8 -138 -12 -130 -4 8 -19 69 -34 135 -14 66 -31 126 -37
133 -10 13 -59 17 -70 5z"/>
<path d="M3388 964 c-5 -4 -8 -142 -8 -306 l0 -298 60 0 c77 0 124 20 150 62
18 30 20 50 20 243 0 224 -4 242 -50 277 -27 20 -158 37 -172 22z m120 -92 c9
-7 12 -56 10 -213 l-3 -204 -27 -3 -28 -3 0 215 c0 199 1 216 18 216 9 0 23
-4 30 -8z"/>
<path d="M1181 218 c-14 -37 5 -68 42 -68 23 0 22 16 -3 23 -12 3 -20 14 -20
26 0 14 6 21 20 21 11 0 20 5 20 10 0 6 -11 10 -25 10 -17 0 -28 -7 -34 -22z"/>
<path d="M1321 218 c-12 -32 -2 -57 25 -64 41 -11 65 25 48 70 -10 25 -63 21
-73 -6z m56 -13 c5 -16 -14 -38 -26 -31 -18 12 -13 48 6 44 9 -2 18 -7 20 -13z"/>
<path d="M1480 195 c0 -45 19 -66 21 -22 l0 22 9 -22 c12 -31 26 -29 38 5 l10
27 1 -27 c2 -47 21 -31 21 17 0 53 -23 63 -41 18 l-11 -28 -10 28 c-16 44 -38
34 -38 -18z"/>
<path d="M1660 195 c0 -45 19 -66 21 -22 l0 22 9 -22 c12 -31 26 -29 38 5 l10
27 1 -27 c2 -47 21 -31 21 17 0 53 -23 63 -41 18 l-11 -28 -10 28 c-16 44 -38
34 -38 -18z"/>
<path d="M1842 198 c3 -40 5 -43 33 -43 28 0 30 3 33 43 2 25 -1 42 -7 42 -6
0 -11 -16 -11 -36 0 -45 -24 -42 -28 4 -5 48 -24 38 -20 -10z"/>
<path d="M1990 195 c0 -52 17 -61 22 -12 l3 32 18 -32 c26 -49 47 -43 47 12 0
49 -16 62 -22 18 l-4 -28 -14 28 c-7 15 -21 27 -32 27 -15 0 -18 -8 -18 -45z"/>
<path d="M2160 195 c0 -25 5 -45 10 -45 6 0 10 20 10 45 0 25 -4 45 -10 45 -5
0 -10 -20 -10 -45z"/>
<path d="M2263 226 c10 -8 17 -26 17 -45 0 -17 5 -31 10 -31 6 0 10 16 10 35
0 19 5 35 10 35 6 0 10 5 10 10 0 6 -17 10 -37 10 -34 -1 -36 -2 -20 -14z"/>
<path d="M2395 223 c4 -10 10 -30 13 -45 5 -32 32 -38 32 -7 0 11 5 29 11 41
14 26 1 38 -16 15 -11 -15 -13 -16 -19 -2 -3 8 -10 15 -17 15 -7 0 -8 -7 -4
-17z"/>
<path d="M2623 224 c-4 -11 2 -23 18 -35 l24 -19 -22 0 c-13 0 -23 -5 -23 -11
0 -6 12 -9 27 -7 34 4 43 34 16 53 -17 13 -17 14 0 15 27 0 20 20 -8 20 -14 0
-28 -7 -32 -16z"/>
<path d="M2760 195 c0 -41 2 -45 25 -45 14 0 25 5 25 10 0 6 -7 10 -15 10 -8
0 -15 5 -15 10 0 6 7 10 15 10 21 0 19 18 -2 23 -17 4 -17 5 0 6 27 2 20 21
-8 21 -23 0 -25 -4 -25 -45z"/>
<path d="M2880 196 c0 -34 4 -46 15 -46 8 0 15 8 15 18 1 16 1 16 14 0 7 -10
19 -18 26 -18 9 0 10 3 2 13 -6 7 -10 26 -9 43 2 26 -1 29 -30 32 -33 3 -33 3
-33 -42z m50 20 c0 -3 -4 -8 -10 -11 -5 -3 -10 -1 -10 4 0 6 5 11 10 11 6 0
10 -2 10 -4z"/>
<path d="M3026 218 c25 -82 44 -90 63 -27 7 23 10 43 7 46 -9 10 -26 -8 -26
-28 0 -11 -4 -17 -10 -14 -5 3 -10 15 -10 26 0 11 -7 19 -16 19 -11 0 -14 -6
-8 -22z"/>
<path d="M3170 195 c0 -33 4 -45 15 -45 11 0 15 12 15 45 0 33 -4 45 -15 45
-11 0 -15 -12 -15 -45z"/>
<path d="M3281 218 c-14 -37 5 -68 42 -68 23 0 22 16 -3 23 -12 3 -20 14 -20
26 0 14 6 21 20 21 11 0 20 5 20 10 0 6 -11 10 -25 10 -17 0 -28 -7 -34 -22z"/>
<path d="M3420 195 c0 -41 2 -45 25 -45 14 0 25 5 25 10 0 6 -7 10 -15 10 -8
0 -15 5 -15 10 0 6 7 10 15 10 21 0 19 18 -2 23 -17 4 -17 5 0 6 27 2 20 21
-8 21 -23 0 -25 -4 -25 -45z"/>
<path d="M3543 224 c-4 -11 2 -23 18 -35 l24 -19 -22 0 c-13 0 -23 -5 -23 -11
0 -6 12 -9 27 -7 34 4 43 34 16 53 -17 13 -17 14 0 15 27 0 20 20 -8 20 -14 0
-28 -7 -32 -16z"/>
</g>
</svg>
