<svg width="82" height="79" viewBox="0 0 82 79" fill="none" xmlns="http://www.w3.org/2000/svg">
<path d="M41.0552 0.000541167C41.4853 0.0116505 41.8866 0.183264 42.2724 0.502002L81.2224 37.533C82.1185 38.3997 82.2457 39.999 81.5748 41.0433C80.9135 42.0725 79.5068 42.2371 78.6599 41.429L40.9911 5.63233L3.3224 41.429C2.47545 42.2371 1.10748 42.0662 0.439593 41.0433C-0.223377 40.028 -0.152037 38.3415 0.759905 37.533L15.3662 23.6464V2.46927C15.3662 1.81454 15.5822 1.18669 15.9666 0.723727C16.3511 0.260764 16.8725 0.00060663 17.4162 0.000541167H25.6161C26.1598 0.00060663 26.6812 0.260764 27.0657 0.723727C27.4501 1.18669 27.6661 1.81454 27.6661 2.46927V11.9585L39.7099 0.502002C40.1661 0.140049 40.6251 -0.0102595 41.0552 0.000541167ZM23.5661 4.938H19.4662V19.7504L23.5661 15.8544V4.938ZM66.6161 33.2127L70.7161 37.1087V76.5313C70.7161 77.186 70.5001 77.8139 70.1156 78.2769C69.7312 78.7399 69.2098 78.9999 68.6661 79H51.2411C50.6975 78.9999 50.1761 78.7399 49.7916 78.2769C49.4072 77.8139 49.1912 77.186 49.1911 76.5313V64.1876C49.1911 58.6742 45.5694 54.3127 40.9911 54.3127C36.4129 54.3127 32.7911 58.6742 32.7911 64.1876V76.5313C32.7911 77.186 32.5751 77.8139 32.1907 78.2769C31.8062 78.7399 31.2848 78.9999 30.7411 79H13.3162C12.7725 78.9999 12.2511 78.7399 11.8666 78.2769C11.4822 77.8139 11.2662 77.186 11.2662 76.5313V37.1087L15.3662 33.2127V74.0625H28.6911V64.1876C28.6911 56.0243 34.2124 49.3752 40.9911 49.3752C47.7699 49.3752 53.2911 56.0243 53.2911 64.1876V74.0625H66.6161V33.2127Z" fill="black"/>
</svg>
