<svg width="79" height="79" viewBox="0 0 79 79" fill="none" xmlns="http://www.w3.org/2000/svg">
<path d="M37.8696 75.7381C32.0399 75.7381 25.6408 74.5728 18.7018 72.2457C17.8064 71.9429 17.079 71.2714 16.7136 70.3958C9.85028 54.017 10.1564 39.0107 17.599 26.9932C27.1155 11.6249 48.2189 1.78641 75.4943 0.00566691C76.4456 -0.0469982 77.2982 0.268992 77.9598 0.887807C78.6247 1.5132 79 2.38547 79 3.29394C79 37.2695 71.9195 59.5929 57.946 69.6388C52.2973 73.7039 45.5789 75.7381 37.8696 75.7381V75.7381ZM22.2207 66.4657C35.5522 70.6526 46.2767 69.9219 54.1045 64.2933C65.7968 55.8833 71.9425 36.5717 72.3935 6.85871C48.999 9.05419 31.1775 17.5629 23.1917 30.4593C17.0329 40.4097 16.707 52.516 22.2207 66.4657V66.4657ZM3.28653 79C1.65712 79 0.241669 77.792 0.0277058 76.133C-0.206008 74.3293 1.06461 72.6769 2.86848 72.4432C3.09232 72.4136 27.0036 68.7237 46.517 34.577C47.4157 33.0003 49.4269 32.4507 51.007 33.3525C52.5837 34.2544 53.1335 36.2656 52.2315 37.8422C30.9734 75.0435 4.8172 78.8288 3.71117 78.9737L3.28653 79V79Z" fill="green"/>
</svg>
