<svg width="117" height="95" viewBox="0 0 117 95" fill="none" xmlns="http://www.w3.org/2000/svg">
<path d="M111.077 46.2051C111.077 69.5849 87.5766 88.7913 58.2403 88.7913C28.9041 88.7913 5.40394 69.5849 5.40394 46.2051C5.40394 22.8252 28.9041 3.61879 58.2403 3.61879C87.5766 3.61879 111.077 22.8252 111.077 46.2051Z" stroke="#6B2929" stroke-width="1.48952"/>
<path d="M115.671 47.222C115.671 72.6349 90.1276 93.5114 58.2404 93.5114C26.3532 93.5114 0.809524 72.6349 0.809524 47.222C0.809524 21.8091 26.3532 0.932571 58.2404 0.932571C90.1276 0.932571 115.671 21.8091 115.671 47.222Z" stroke="#6B2929" stroke-width="1.61905"/>
<path d="M95.618 49.6578L86.26 38.9499V38.8775C86.0958 38.6605 85.7674 38.4434 85.4391 38.3711L71.0737 33.9577C73.7005 31.353 75.2602 27.9525 75.2602 24.1903C75.2602 16.0147 67.7081 9.3584 58.4321 9.3584C49.1561 9.3584 41.604 16.0147 41.604 24.1903C41.604 27.9525 43.1637 31.353 45.7905 33.9577L31.4251 38.3711C31.0967 38.4434 30.8505 38.6605 30.6042 38.8775L21.2462 49.6578C20.9178 50.0195 20.7536 50.5983 20.9178 51.0324C21.082 51.5389 21.4924 51.9006 22.067 52.0453L30.1938 54.5776V68.3243C30.1938 68.9754 30.6863 69.5542 31.343 69.7713L57.7754 77.9469C57.9396 78.0193 58.1858 78.0193 58.35 78.0193C58.5142 78.0193 58.7604 78.0193 58.9246 77.9469L85.357 69.7713C86.0958 69.5542 86.5062 68.9754 86.5062 68.3243V54.5776L94.633 52.0453C95.2076 51.9006 95.618 51.4665 95.7822 51.0324C96.0285 50.526 95.9464 50.0195 95.618 49.6578ZM45.1338 24.1903C45.1338 17.7511 51.1262 12.4695 58.4321 12.4695C65.7379 12.4695 71.7304 17.7511 71.7304 24.1903C71.7304 30.6295 65.7379 35.9111 58.4321 35.9111C51.1262 35.9111 45.1338 30.7019 45.1338 24.1903ZM25.5968 49.8025L32.6564 41.6992L56.462 49.079L51.6188 57.9058L25.5968 49.8025ZM56.6262 74.3294L33.8056 67.239V55.6629L52.0292 61.3062C52.1934 61.3786 52.4397 61.3786 52.6038 61.3786C53.2605 61.3786 53.9172 61.0168 54.1635 60.5104L56.6262 55.9523V74.3294ZM58.4321 46.402L37.3354 39.8904L48.7457 36.3452C51.4546 38.0816 54.8202 39.0222 58.4321 39.0222C62.044 39.0222 65.3275 38.0093 68.1185 36.3452L79.5287 39.8904L58.4321 46.402ZM83.0585 67.239L60.1559 74.3294V55.9523L62.6186 60.5104C62.9469 61.0892 63.5216 61.3786 64.1783 61.3786C64.3424 61.3786 64.5887 61.3786 64.7529 61.3062L83.0585 55.6629V67.239ZM65.1633 57.9058L60.3201 49.079L84.1257 41.6992L91.2674 49.8025L65.1633 57.9058Z" fill="#6B2929"/>
<path d="M56.544 31.0632C57.0365 31.4973 57.7753 31.7867 58.432 31.7867C59.0887 31.7867 59.8275 31.5697 60.3201 31.0632L65.5737 26.4328C66.6409 25.4922 67.1334 24.2622 67.1334 22.9599C67.0513 21.6576 66.3946 20.4277 65.3274 19.5594C63.3573 18.0401 60.4022 18.0401 58.432 19.5594C57.447 18.8359 56.1336 18.4018 54.8202 18.4742C53.3426 18.5465 51.9471 19.053 50.962 20.0659C49.1561 21.947 49.2382 24.7687 51.2904 26.5051L56.544 31.0632ZM53.6709 22.0917C53.9993 21.73 54.4918 21.5853 54.9843 21.5853C54.9843 21.5853 54.9843 21.5853 55.0664 21.5853C55.559 21.5853 55.9694 21.73 56.2977 22.0194L57.2007 22.8152C57.8574 23.394 59.0067 23.394 59.6634 22.8152L60.4842 22.0917C61.1409 21.5129 62.2902 21.4406 62.9469 21.947C63.3573 22.2364 63.5215 22.6705 63.5215 23.1046C63.5215 23.5387 63.3573 23.9728 63.029 24.2622L58.432 28.3862L53.8351 24.3346C53.0963 23.6834 53.0142 22.6705 53.6709 22.0917Z" fill="#6B2929"/>
</svg>
