<svg width="117" height="95" viewBox="0 0 117 95" fill="none" xmlns="http://www.w3.org/2000/svg">
<path d="M88.2368 50.815C86.7632 50.815 85.4723 51.4966 84.7257 52.519C84.2928 51.7444 84.0523 50.8856 84.0523 50.0133V47.9104C84.0523 43.1052 79.6394 39.1966 74.2142 39.1966H69.8418C69.1127 39.1966 68.4043 39.2722 67.7211 39.4058C66.5865 38.9439 65.3993 38.5886 64.174 38.3601L63.6919 36.6522C65.3928 35.8312 66.5624 34.2521 66.5624 32.4193V31.4511H67.6555C69.4636 31.4511 70.9349 30.1479 70.9349 28.5465C70.9349 27.8649 70.6572 27.2462 70.2123 26.7505L70.4911 26.0059C70.7851 25.2266 70.9349 24.4142 70.9349 23.5922C70.9349 19.3835 67.0696 15.96 62.3178 15.96H57.3857C54.6802 15.96 52.1617 17.0957 50.5712 19.0146L50.2903 19.0979C48.2538 19.6991 46.8863 21.3819 46.8863 23.2824C46.8863 23.6455 46.9366 24.0066 47.036 24.3513L47.6886 26.6653C47.1956 27.1736 46.8863 27.8252 46.8863 28.5465C46.8863 30.1479 48.3576 31.4511 50.1656 31.4511H51.2588V32.4193C51.2588 34.2521 52.4284 35.8312 54.1293 36.6532L53.6472 38.3601C53.6439 38.3611 53.6407 38.362 53.6363 38.362C52.3399 37.6679 50.8248 37.2602 49.2004 37.2602H44.2683C43.9819 37.2602 43.6988 37.2796 43.4167 37.3048L42.5543 28.9105L43.4736 28.0963C44.265 27.3972 44.7001 26.4658 44.7001 25.4754C44.7001 23.4325 42.8221 21.7691 40.5156 21.7691C38.0003 21.7691 35.9551 23.5806 35.9551 25.8084V40.9423C34.6139 41.7488 33.7689 43.0946 33.7689 44.5817C33.7689 44.94 33.8192 45.2992 33.9186 45.6506L34.5712 47.9646C34.0782 48.4739 33.7689 49.1255 33.7689 49.8468C33.7689 51.4482 35.2402 52.7514 37.0482 52.7514H38.1413V53.7196C38.1413 55.5523 39.311 57.1315 41.0119 57.9535L40.5298 59.6604C37.351 60.2529 34.4871 61.6374 32.2068 63.6397L31.6231 57.9564L32.5424 57.1421C33.3338 56.4431 33.7689 55.5117 33.7689 54.5212C33.7689 52.4783 31.8909 50.815 29.5844 50.815C27.0691 50.815 25.0239 52.6265 25.0239 54.8543V69.2997C25.0239 71.9197 27.431 74.0516 30.389 74.0516C31.6406 74.0516 32.8255 73.6605 33.7689 72.9808V75.988H84.0523V72.9798C84.9957 73.6605 86.1806 74.0516 87.4322 74.0516C90.3902 74.0516 92.7973 71.9197 92.7973 69.2997V54.8543C92.7973 52.6265 90.752 50.815 88.2368 50.815ZM88.2368 52.7514C89.5452 52.7514 90.611 53.6953 90.611 54.8543V60.4969H88.1307L88.4663 57.2283L86.8234 55.7731C86.4517 55.4439 86.2386 54.9879 86.2386 54.5212C86.2386 53.5453 87.1349 52.7514 88.2368 52.7514ZM85.6133 63.6387C84.2677 62.4575 82.7176 61.498 81.0178 60.7854C82.7318 59.8463 84.142 58.5518 85.1498 57.0037C85.1957 57.0482 85.2296 57.0985 85.2777 57.1421L86.197 57.9564L85.6133 63.6387ZM74.2142 41.133C78.4326 41.133 81.8661 44.1741 81.8661 47.9104V50.0133C81.8661 51.7909 82.5952 53.5327 83.8796 54.8901C82.8422 57.1828 80.8156 58.9691 78.2074 59.8705C77.9035 59.7979 77.6018 59.7185 77.2914 59.6604L76.5983 57.206C78.4643 55.9687 79.6798 54.0013 79.6798 51.7832V48.0575L77.029 47.6674C73.9366 47.2104 70.9469 46.3497 68.1442 45.1075L67.4391 44.7957L66.8816 45.2895C65.29 46.7001 64.3762 48.654 64.3762 50.6484V51.7832C64.3762 54.0013 65.5917 55.9687 67.4577 57.206L66.7646 59.6604C66.4498 59.7195 66.1416 59.7921 65.8344 59.8657C63.2361 58.9633 61.204 57.1905 60.1655 54.9066C61.4597 53.5472 62.1899 51.7977 62.1899 50.0133V47.9104C62.1899 44.1741 65.6234 41.133 69.8418 41.133H74.2142ZM72.028 56.6241C69.0143 56.6241 66.5624 54.4525 66.5624 51.7832V50.6484C66.5624 49.3888 67.051 48.1524 67.9234 47.1639C70.6999 48.318 73.6393 49.1293 76.6705 49.5766L77.4936 49.6996V51.7832C77.4936 54.4525 75.0417 56.6241 72.028 56.6241ZM69.4428 58.1539C70.2517 58.4124 71.1196 58.5605 72.028 58.5605C72.9364 58.5605 73.8043 58.4124 74.6132 58.1539L75.1183 59.945C73.1594 60.648 70.8977 60.648 68.9389 59.945L69.4428 58.1539ZM64.7227 40.4834C61.8981 42.016 60.0037 44.7676 60.0037 47.9104V50.0133C60.0037 51.4985 59.3238 52.9527 58.1378 54.0032L57.5814 54.4989L57.8995 55.0624C58.8264 57.4761 60.6399 59.4706 63.0251 60.7806C61.533 61.408 60.1524 62.229 58.9172 63.2311C56.7604 61.4874 54.079 60.2229 51.0565 59.6604L50.5745 57.9535C52.2754 57.1315 53.445 55.5523 53.445 53.7196V52.7514H54.5381C56.3461 52.7514 57.8175 51.4482 57.8175 49.8468C57.8175 49.1652 57.5398 48.5465 57.0949 48.0508L57.3737 47.3062C57.6677 46.5268 57.8175 45.7145 57.8175 44.8925C57.8175 43.4209 57.3365 42.0499 56.5189 40.8832C57.3026 41.0478 58.1072 41.133 58.9106 41.133C60.4661 41.133 62.0216 40.8106 63.4241 40.2094C63.8624 40.2829 64.2953 40.3749 64.7227 40.4834ZM53.445 48.8786H54.5381C55.1415 48.8786 55.6312 49.3123 55.6312 49.8468C55.6312 50.3812 55.1415 50.815 54.5381 50.815H53.445V48.8786ZM67.6555 29.5147H66.5624V27.5783H67.6555C68.2589 27.5783 68.7487 28.012 68.7487 28.5465C68.7487 29.0809 68.2589 29.5147 67.6555 29.5147ZM51.2588 29.5147H50.1656C49.5622 29.5147 49.0725 29.0809 49.0725 28.5465C49.0725 28.012 49.5622 27.5783 50.1656 27.5783H51.2588V29.5147ZM50.1656 25.6419C49.994 25.6419 49.829 25.6642 49.665 25.6864L49.1556 23.8798C49.0999 23.6862 49.0725 23.4848 49.0725 23.2824C49.0725 22.2155 49.8399 21.2734 50.9811 20.9355L51.9605 20.647L52.1682 20.3701C53.3335 18.821 55.2847 17.8964 57.3857 17.8964H62.3178C65.8639 17.8964 68.7487 20.4514 68.7487 23.5922C68.7487 24.2061 68.6372 24.8122 68.4174 25.394L68.3027 25.7C68.0939 25.6622 67.8774 25.6419 67.6555 25.6419H64.3762V32.4193C64.3762 34.0207 62.9048 35.3239 61.0968 35.3239H56.7244C54.9163 35.3239 53.445 34.0207 53.445 32.4193V25.6419H50.1656ZM56.7244 37.2602H61.0968C61.2684 37.2602 61.4302 37.2293 61.5975 37.2157L62.0008 38.6457C60.0409 39.3486 57.7803 39.3486 55.8203 38.6457L56.2237 37.2157C56.391 37.2293 56.5527 37.2602 56.7244 37.2602ZM40.5156 23.7055C41.6175 23.7055 42.5138 24.4994 42.5138 25.4754C42.5138 25.9411 42.3007 26.3981 41.929 26.7273L40.286 28.1824L41.2677 37.7501C40.0882 38.1461 39.0191 38.7726 38.1413 39.5917V25.8084C38.1413 24.6495 39.2071 23.7055 40.5156 23.7055ZM37.0482 50.815C36.4448 50.815 35.9551 50.3812 35.9551 49.8468C35.9551 49.3123 36.4448 48.8786 37.0482 48.8786H38.1413V50.815H37.0482ZM38.9032 46.9422H37.0482C36.8766 46.9422 36.7115 46.9645 36.5476 46.9867L36.0393 45.182C35.9824 44.9855 35.9551 44.7831 35.9551 44.5827C35.9551 43.5157 36.7225 42.5737 37.8637 42.2358L38.8431 41.9473L39.0508 41.6704C40.2161 40.1213 42.1673 39.1966 44.2683 39.1966H49.2004C52.7465 39.1966 55.6312 41.7517 55.6312 44.8925C55.6312 45.5064 55.5197 46.1124 55.3 46.6943L55.1852 47.0003C54.9765 46.9625 54.76 46.9422 54.5381 46.9422H53.445H52.3519H49.7339C47.3727 46.9422 45.0848 46.3284 43.1194 45.1685L42.5138 44.8102L38.9032 46.9422ZM40.3276 48.4284L42.5313 47.1271C44.711 48.2754 47.1858 48.8786 49.7339 48.8786H51.2588V53.7196C51.2588 55.3209 49.7874 56.6241 47.9794 56.6241H43.6069C41.7989 56.6241 40.3276 55.3209 40.3276 53.7196V48.4284ZM43.6069 58.5605H47.9794C48.151 58.5605 48.3128 58.5295 48.4801 58.516L48.8834 59.946C46.9246 60.6489 44.6629 60.6489 42.7029 59.946L43.1063 58.516C43.2735 58.5295 43.4353 58.5605 43.6069 58.5605ZM29.5844 52.7514C30.6863 52.7514 31.5826 53.5453 31.5826 54.5212C31.5826 54.9869 31.3695 55.4439 30.9978 55.7731L29.3549 57.2283L29.6904 60.4969H27.2102V54.8543C27.2102 53.6953 28.276 52.7514 29.5844 52.7514ZM33.7689 68.2425V69.8855L33.0343 70.8614C32.4429 71.6466 31.4547 72.1152 30.389 72.1152C28.6367 72.1152 27.2102 70.8518 27.2102 69.2997V62.4333H29.8883L30.4928 68.3306L32.6703 68.1544L32.479 66.2828C34.6729 63.781 37.7719 62.1002 41.2862 61.5116C42.6865 62.1119 44.2399 62.4333 45.7932 62.4333C47.3476 62.4333 48.9009 62.1109 50.3023 61.5116C57.1485 62.6579 62.097 67.8697 62.1823 74.0516H57.8175V68.2425H55.6312V74.0516H48.432L52.2196 70.6968C53.0099 69.9978 53.445 69.0664 53.445 68.0759C53.445 66.0331 51.567 64.3697 49.2605 64.3697C48.1434 64.3697 47.0918 64.755 46.3015 65.455L45.7932 65.9052L45.2849 65.455C44.4956 64.755 43.4441 64.3697 42.3258 64.3697C40.0193 64.3697 38.1413 66.0331 38.1413 68.0759C38.1413 69.0654 38.5764 69.9968 39.3667 70.6968L43.1544 74.0516H35.9551V68.2425H33.7689ZM45.7932 73.6508L40.9124 69.3278C40.5407 68.9986 40.3276 68.5426 40.3276 68.0759C40.3276 67.1 41.2239 66.3061 42.3258 66.3061C42.8516 66.3061 43.3675 66.4949 43.7392 66.8241L45.0203 67.9588C45.4477 68.3374 46.1386 68.3374 46.566 67.9588L47.8471 66.8241C48.2188 66.4949 48.7337 66.3061 49.2605 66.3061C50.3624 66.3061 51.2588 67.1 51.2588 68.0759C51.2588 68.5416 51.0456 68.9986 50.6739 69.3278L45.7932 73.6508ZM87.4322 72.1152C86.3664 72.1152 85.3783 71.6466 84.7869 70.8614L84.0523 69.8855V68.2425H81.8661V74.0516H74.6668L78.4545 70.6968C79.2448 69.9978 79.6798 69.0664 79.6798 68.0759C79.6798 66.0331 77.8019 64.3697 75.4954 64.3697C74.3782 64.3697 73.3266 64.755 72.5363 65.455L72.028 65.9052L71.5197 65.455C70.7305 64.755 69.6789 64.3697 68.5606 64.3697C66.2542 64.3697 64.3762 66.0331 64.3762 68.0759C64.3762 69.0654 64.8112 69.9968 65.6016 70.6968L69.3892 74.0516H64.3685C64.3259 70.479 62.8699 67.19 60.4333 64.6282C62.4272 63.0239 64.8517 61.957 67.5167 61.5106C68.9181 62.1109 70.4736 62.4333 72.028 62.4333C73.5813 62.4333 75.1347 62.1119 76.5349 61.5126C80.0493 62.1012 83.1483 63.782 85.3422 66.2838L85.1498 68.1553L87.3273 68.3315L87.9329 62.4333H90.611V69.2997C90.611 70.8518 89.1845 72.1152 87.4322 72.1152ZM72.028 73.6508L67.1472 69.3278C66.7756 68.9986 66.5624 68.5426 66.5624 68.0759C66.5624 67.1 67.4588 66.3061 68.5606 66.3061C69.0864 66.3061 69.6024 66.4949 69.974 66.8241L71.2552 67.9588C71.6826 68.3374 72.3734 68.3374 72.8008 67.9588L74.082 66.8241C74.4536 66.4949 74.9685 66.3061 75.4954 66.3061C76.5972 66.3061 77.4936 67.1 77.4936 68.0759C77.4936 68.5416 77.2804 68.9986 76.9088 69.3278L72.028 73.6508Z" fill="#6B2929"/>
<path d="M60.9803 22.3049L59.0249 23.1709L61.211 27.0434L63.1664 26.1775L60.9803 22.3049Z" fill="#6B2929"/>
<path d="M56.608 22.304L54.6526 23.1699L56.8387 27.0425L58.7941 26.1765L56.608 22.304Z" fill="#6B2929"/>
<path d="M111.077 46.3428C111.077 69.7226 87.5766 88.929 58.2403 88.929C28.9041 88.929 5.40394 69.7226 5.40394 46.3428C5.40394 22.9629 28.9041 3.75648 58.2403 3.75648C87.5766 3.75648 111.077 22.9629 111.077 46.3428Z" stroke="#6B2929" stroke-width="1.48952"/>
<path d="M115.671 47.3597C115.671 72.7725 90.1276 93.6491 58.2404 93.6491C26.3532 93.6491 0.809524 72.7725 0.809524 47.3597C0.809524 21.9468 26.3532 1.07027 58.2404 1.07027C90.1276 1.07027 115.671 21.9468 115.671 47.3597Z" stroke="#6B2929" stroke-width="1.61905"/>
</svg>
